<?xml version="1.0" encoding="UTF-8"?>
<svg version="1.1" xmlns="http://www.w3.org/2000/svg" width="180" height="180">
<path d="M0 0 C59.4 0 118.8 0 180 0 C180 59.4 180 118.8 180 180 C120.6 180 61.2 180 0 180 C0 120.6 0 61.2 0 0 Z " fill="#222222" transform="translate(0,0)"/>
<path d="M0 0 C4.95 0 9.9 0 15 0 C15.74572266 1.9802417 16.49144531 3.9604834 17.25976562 6.00073242 C19.75795914 12.63442325 22.25659757 19.26794643 24.75543976 25.90139294 C26.26652863 29.91278111 27.77747977 33.92422104 29.28808594 37.93579102 C29.58039597 38.71198225 29.87270599 39.48817348 30.1738739 40.28788567 C30.75976711 41.84376962 31.34555252 43.39969418 31.93122864 44.95565987 C33.36831175 48.77255107 34.80808946 52.58838431 36.25366211 56.40206909 C38.69021378 62.83463094 41.11177234 69.26770528 43.41796875 75.74853516 C43.77177612 76.72647537 44.1255835 77.70441559 44.4901123 78.71199036 C45.11385896 80.44165803 45.72386311 82.17638731 46.31555176 83.9172821 C48.23699072 89.1922276 50.31464598 91.84289462 55 95 C58.22433127 95.873938 58.22433127 95.873938 61 96 C61 97.32 61 98.64 61 100 C46.81 100 32.62 100 18 100 C18 98.68 18 97.36 18 96 C18.83144531 95.93941406 19.66289063 95.87882812 20.51953125 95.81640625 C21.60621094 95.73261719 22.69289063 95.64882812 23.8125 95.5625 C24.89144531 95.48128906 25.97039062 95.40007812 27.08203125 95.31640625 C30.05989905 95.09787539 30.05989905 95.09787539 33 94 C32.57830248 85.6826894 29.92086452 78.65901154 26.9375 70.9375 C25.308125 66.668125 23.67875 62.39875 22 58 C11.44 58 0.88 58 -10 58 C-11.629375 62.455 -13.25875 66.91 -14.9375 71.5 C-15.45046631 72.88896484 -15.96343262 74.27792969 -16.49194336 75.70898438 C-18.70766011 81.84168491 -20.61257406 87.47146072 -21 94 C-17.99221479 95.00259507 -15.46179353 95.30314642 -12.3125 95.5625 C-10.82169922 95.68818359 -10.82169922 95.68818359 -9.30078125 95.81640625 C-8.54152344 95.87699219 -7.78226563 95.93757813 -7 96 C-7 97.32 -7 98.64 -7 100 C-18.88 100 -30.76 100 -43 100 C-43 98.68 -43 97.36 -43 96 C-41.33984375 95.609375 -39.6796875 95.21875 -38.01953125 94.828125 C-33.56430525 93.00122382 -30.96655007 90.43695378 -29.06494141 86.06933594 C-28.43609766 84.46387705 -27.8243426 82.85165718 -27.2265625 81.234375 C-26.88952301 80.35738953 -26.55248352 79.48040405 -26.20523071 78.57684326 C-25.11727495 75.72481696 -24.05533121 72.86424813 -23 70 C-22.64740112 69.04762451 -22.29480225 68.09524902 -21.93151855 67.11401367 C-19.3704615 60.17439408 -16.86764885 53.2144251 -14.375 46.25 C-13.28219889 43.20521326 -12.18835293 40.16080708 -11.09332275 37.11682129 C-10.38695957 35.15186711 -9.68229432 33.18630163 -8.97943115 31.22009277 C-7.41918518 26.86881589 -5.83513133 22.53377413 -4.14160156 18.23242188 C-3.85862213 17.50778748 -3.5756427 16.78315308 -3.28408813 16.03656006 C-2.53877161 14.14246857 -1.77906439 12.25405663 -1.01806641 10.36621094 C0.33773499 6.46942 0.33773499 6.46942 0 0 Z " fill="#EFEEEA" transform="translate(81,46)"/>
<path d="M0 0 C3.80921429 2.5394762 4.15770249 4.41533766 5.69921875 8.6875 C5.9391304 9.34580811 6.17904205 10.00411621 6.42622375 10.68237305 C6.93083653 12.07269222 7.43066205 13.46475695 7.92602539 14.85839844 C8.68586008 16.99538782 9.45971872 19.12686906 10.23632812 21.2578125 C14 31.66963277 14 31.66963277 14 34 C5.42 34 -3.16 34 -12 34 C-8.62395875 21.62118207 -8.62395875 21.62118207 -6.9921875 17.40234375 C-6.64542969 16.49935547 -6.29867187 15.59636719 -5.94140625 14.66601562 C-5.58949219 13.76560547 -5.23757812 12.86519531 -4.875 11.9375 C-4.51535156 11.00228516 -4.15570313 10.06707031 -3.78515625 9.10351562 C-1.1860119 2.37202381 -1.1860119 2.37202381 0 0 Z " fill="#2D2C2C" transform="translate(86,62)"/>
<path d="M0 0 C11.88 0 23.76 0 36 0 C36 0.99 36 1.98 36 3 C24.12 3 12.24 3 0 3 C0 2.01 0 1.02 0 0 Z " fill="#E9E7E4" transform="translate(38,143)"/>
</svg>
